<svg
  width="429"
  height="95.57707550405499"
  viewBox="0 0 370 82.43244274242505"
  class="looka-1j8o68f"
>
  <defs id="SvgjsDefs1355">
    <linearGradient id="SvgjsLinearGradient1360">
      <stop id="SvgjsStop1361" stop-color="#905e26" offset="0"></stop>
      <stop id="SvgjsStop1362" stop-color="#f5ec9b" offset="0.5"></stop>
      <stop id="SvgjsStop1363" stop-color="#905e26" offset="1"></stop>
    </linearGradient>
    <linearGradient id="SvgjsLinearGradient1364">
      <stop id="SvgjsStop1365" stop-color="#905e26" offset="0"></stop>
      <stop id="SvgjsStop1366" stop-color="#f5ec9b" offset="0.5"></stop>
      <stop id="SvgjsStop1367" stop-color="#905e26" offset="1"></stop>
    </linearGradient>
  </defs>
  <g
    id="SvgjsG1356"
    featurekey="Df7oLJ-0"
    transform="matrix(1.3513513803482056,0,0,1.3513513803482056,-17.56756756756757,-26.351364238842116)"
    fill="url(#SvgjsLinearGradient1360)"
  >
    <g xmlns="http://www.w3.org/2000/svg" transform="translate(0,-952.36218)">
      <g transform="translate(6.999762,959.33092)">
        <path
          d="m 54.72867,12.556672 -13.0173,4.0017 c -0.1641,0.044 -0.31648,0.1314 -0.43808,0.2501 l -27.03592,28.012 c -0.57514,0.5556 -0.0801,1.7383 0.7197,1.7195 l 9.01198,0 0,10.1605 c -5.99264,1.1529 -12.63653,4.0059 -17.3981201,5.9088 -0.61173,0.2624 -0.7724,1.2077 -0.28163,1.6571 l 10.0133101,9.0038 c 0.27977,0.2574 0.71287,0.3337 1.06391,0.1875 19.99625,-8.9902 35.71344,-14.9212 61.55054,-11.9425 0.46535,0.039 0.93499,-0.2917 1.05347,-0.7431 0.11849,-0.4513 -0.12795,-0.9702 -0.5528,-1.164 l -10.38881,-4.0643 0,-11.0047 8.01065,0 c 0.73907,0.01 1.25236,-1.0002 0.81358,-1.5944 l -22.02927,-30.0128 c -0.34514,-0.4609 -0.81358,-0.419 -1.09521,-0.3752 z m 0.15641,2.5326 20.18307,27.4492 -6.50865,0 -17.14779,-23.7601 z m -4.8502,5.1585 16.99133,23.6038 0,11.7236 c -10.37671,0.054 -22.32824,0.9873 -32.04258,4.5333 l 0,-14.5687 c -5e-5,-0.5238 -0.47705,-1.0004 -1.00133,-1.0005 l -6.72769,0 z m -3.22303,13.2869 c -0.45901,0.088 -0.82181,0.5336 -0.81358,1.0004 l 0,14.006 c 5e-5,0.5238 0.47705,1.0003 1.00133,1.0004 l 10.01331,0 c 0.52427,-10e-5 1.00128,-0.4766 1.00133,-1.0004 l 0,-14.006 c -5e-5,-0.5238 -0.47706,-1.0003 -1.00133,-1.0004 -3.39213,0 -6.82542,0 -10.20106,0 z m 1.18908,2.0008 3.00399,0 0,5.0021 -3.00399,0 z m 5.00665,0 3.004,0 0,5.0021 -3.004,0 z m -5.00665,7.003 3.00399,0 0,5.0021 -3.00399,0 z m 5.00665,0 3.004,0 0,5.0021 -3.004,0 z m -27.03592,4.0017 7.00931,0 0,13.4119 -7.00931,-3.095 z"
          style="
            text-indent: 0;
            text-transform: none;
            direction: ltr;
            block-progression: tb;
            baseline-shift: baseline;
            color:;
            enable-background: accumulate;
          "
          fill="url(#SvgjsLinearGradient1360)"
          fill-opacity="1"
          stroke="none"
          marker="none"
          visibility="visible"
          display="inline"
          overflow="visible"
        ></path>
      </g>
    </g>
  </g>
  <g
    id="SvgjsG1357"
    featurekey="Ua4uQk-0"
    transform="matrix(3.17258882522583,0,0,3.17258882522583,116.19289188436743,-6.03553225771784)"
    fill="url(#SvgjsLinearGradient1364)"
  >
    <path
      d="M10.2 8.94 l-5.68 0 l0 2.66 l4.66 0 l0 2.74 l-4.66 0 l0 5.66 l-3.32 0 l0 -14 l9 0 l0 2.94 z M18.8 9.6 l3.16 0 l0 10.4 l-3.16 0 l0 -1.04 c-0.14 0.36 -1.08 1.24 -2.68 1.24 c-2.38 0 -5.12 -1.7 -5.12 -5.42 c0 -3.58 2.74 -5.36 5.12 -5.36 c1.6 0 2.54 0.92 2.68 1.14 l0 -0.96 z M16.580000000000002 17.42 c1.3 0 2.36 -0.9 2.36 -2.64 c0 -1.68 -1.06 -2.58 -2.36 -2.58 c-1.36 0 -2.52 0.92 -2.52 2.58 c0 1.72 1.16 2.64 2.52 2.64 z M37.9 9.44 c2.22 0 4.18 1.44 4.18 4.96 l0 5.6 l-3.16 0 l0 -5.5 c0 -1.32 -0.56 -2.32 -2.02 -2.32 c-1.22 0 -2.04 1.08 -2.28 2.04 l0 5.78 l-3.16 0 l0 -5.5 c0 -1.32 -0.82 -2.32 -2.02 -2.32 c-1.3 0 -2.08 0.88 -2.28 2.04 l0 5.78 l-3.16 0 l0 -10.4 l3.16 0 l0 1.9 c0.04 -0.48 1.06 -2.06 3.1 -2.06 c1.5 0 2.94 0.8 3.8 2.26 c0.24 -0.56 1.44 -2.26 3.84 -2.26 z M51.480000000000004 9.6 l3.16 0 l0 10.4 l-3.16 0 l0 -1.04 c-0.14 0.36 -1.08 1.24 -2.68 1.24 c-2.38 0 -5.12 -1.7 -5.12 -5.42 c0 -3.58 2.74 -5.36 5.12 -5.36 c1.6 0 2.54 0.92 2.68 1.14 l0 -0.96 z M49.260000000000005 17.42 c1.3 0 2.36 -0.9 2.36 -2.64 c0 -1.68 -1.06 -2.58 -2.36 -2.58 c-1.36 0 -2.52 0.92 -2.52 2.58 c0 1.72 1.16 2.64 2.52 2.64 z M64.16 9.6 l3.16 0 l0 10.4 c0 3.16 -3.2 4.12 -5.52 4.12 c-1.1 0 -2.1 -0.18 -2.74 -0.52 l0 -2.58 c0.64 0.34 1.6 0.48 2.74 0.48 c1.86 0 2.36 -0.96 2.36 -1.5 l0 -1.04 c-0.14 0.36 -1.08 1.24 -2.68 1.24 c-2.38 0 -5.12 -1.7 -5.12 -5.42 c0 -3.58 2.74 -5.36 5.12 -5.36 c1.6 0 2.54 0.92 2.68 1.14 l0 -0.96 z M61.940000000000005 17.42 c1.3 0 2.36 -0.9 2.36 -2.64 c0 -1.68 -1.06 -2.58 -2.36 -2.58 c-1.36 0 -2.52 0.92 -2.52 2.58 c0 1.72 1.16 2.64 2.52 2.64 z M74.52000000000001 9.42 c2.36 0 5.48 1.78 5.48 5.42 c0 3.66 -3.12 5.36 -5.48 5.36 s-5.48 -1.7 -5.48 -5.36 c0 -3.64 3.12 -5.42 5.48 -5.42 z M74.52000000000001 12.2 c-1.2 0 -2.42 0.92 -2.42 2.64 c0 1.66 1.22 2.58 2.42 2.58 s2.44 -0.92 2.44 -2.58 c0 -1.72 -1.24 -2.64 -2.44 -2.64 z"
    ></path>
  </g>
</svg>
